<?xml version="1.0" encoding="UTF-8" standalone="no"?>
<svg width="128px" height="128px" viewBox="0 0 128 128" version="1.1" xmlns="http://www.w3.org/2000/svg" xmlns:xlink="http://www.w3.org/1999/xlink" xmlns:sketch="http://www.bohemiancoding.com/sketch/ns">
    <!-- Generator: Sketch 3.2 (9961) - http://www.bohemiancoding.com/sketch -->
    <title>bitCNY-accepted-flat-square-2</title>
    <desc>Created with Sketch.</desc>
    <defs>
        <linearGradient x1="50%" y1="0%" x2="50%" y2="100%" id="linearGradient-1">
            <stop stop-color="#FFFFFF" stop-opacity="0.5" offset="0%"></stop>
            <stop stop-color="#000000" stop-opacity="0.5" offset="100%"></stop>
        </linearGradient>
        <path id="path-2" d="M109.369806,111.597979 L2.59647312,111.597979 C1.32593548,111.597979 0.285419355,110.565938 0.285419355,109.303093 L0.285419355,3.27670103 C0.285419355,2.01505155 1.32593548,0.981814433 2.59647312,0.981814433 L109.369806,0.981814433 C110.640344,0.981814433 111.68086,2.01505155 111.68086,3.27670103 L111.68086,109.303093 C111.68086,110.565938 110.640344,111.597979 109.369806,111.597979 L109.369806,111.597979 Z"></path>
    </defs>
    <g id="BitAsset-Logo-+-Icons---Fonts-outlined-" stroke="none" stroke-width="1" fill="none" fill-rule="evenodd" sketch:type="MSPage">
        <g id="bitCNY-accepted-flat-square-2" sketch:type="MSArtboardGroup">
            <g id="Group" sketch:type="MSLayerGroup" transform="translate(7.000000, 5.000000)">
                <g id="Fill-1-+-Fill-2-+-Stroke-3">
                    <path d="M109.369806,114.984701 L2.59647312,114.984701 C1.32593548,114.984701 0.285419355,113.951464 0.285419355,112.689814 L0.285419355,4.97006186 C0.285419355,3.70841237 1.32593548,2.67517526 2.59647312,2.67517526 L109.369806,2.67517526 C110.640344,2.67517526 111.68086,3.70841237 111.68086,4.97006186 L111.68086,112.689814 C111.68086,113.951464 110.640344,114.984701 109.369806,114.984701" id="Fill-1" fill="#B6B8B4" sketch:type="MSShapeGroup"></path>
                    <g id="Fill-2">
                        <use fill="#FFFFFF" sketch:type="MSShapeGroup" xlink:href="#path-2"></use>
                        <use fill-opacity="0.200000018" fill="url(#linearGradient-1)" xlink:href="#path-2"></use>
                    </g>
                    <path d="M2.59647312,111.597979 C1.32593548,111.597979 0.285419355,110.565938 0.285419355,109.303093 L0.285419355,3.27670103 C0.285419355,2.01505155 1.32593548,0.981814433 2.59647312,0.981814433 L109.369806,0.981814433 C110.640344,0.981814433 111.68086,2.01505155 111.68086,3.27670103 L111.68086,109.303093 C111.68086,110.565938 110.640344,111.597979 109.369806,111.597979 L2.59647312,111.597979 Z" id="Stroke-3" stroke="#E4E5E3" stroke-width="0.5" sketch:type="MSShapeGroup"></path>
                </g>
                <g transform="translate(38.000000, 18.000000)" sketch:type="MSShapeGroup">
                    <path d="M12.643957,34.3539381 L0.41427957,22.2193814 L0.41427957,36.7480825 L11.6383656,36.7480825 C11.8057634,35.8738969 12.1538065,35.0618969 12.643957,34.3539381" id="Fill-1" fill="#CBCCCB"></path>
                    <path d="M11.6383656,39.1218969 L0.41427957,39.1218969 C0.679225806,43.0348041 2.24602151,46.5925361 4.68954839,49.3729485 L12.6258925,41.4921237 C12.1453763,40.7901443 11.8033548,39.9865155 11.6383656,39.1218969" id="Fill-2" fill="#CBCCCB"></path>
                    <path d="M29.4150538,24.8192165 C26.6162581,22.3939794 23.0322581,20.8369485 19.0917849,20.5738557 L19.0917849,31.7194227 C19.9636989,31.8844536 20.7717849,32.2228866 21.4787097,32.7012371 L29.4150538,24.8192165" id="Fill-3" fill="#CBCCCB"></path>
                    <path d="M23.2755269,41.3270928 L31.2311398,49.2270515 C33.6024086,46.4693608 35.119828,42.9666392 35.3811613,39.1218969 L24.1570753,39.1218969 C24.004129,39.9207423 23.7006452,40.6657732 23.2755269,41.3270928" id="Fill-4" fill="#CBCCCB"></path>
                    <path d="M24.1570753,36.7480825 L35.3811613,36.7480825 C35.1150108,32.8363711 33.5482151,29.2774433 31.1046882,26.4982268 L23.1683441,34.3790515 C23.6500645,35.0798351 23.9908817,35.8834639 24.1570753,36.7480825" id="Fill-5" fill="#CBCCCB"></path>
                    <path d="M6.3791828,51.0507629 C9.1791828,53.4771959 12.7619785,55.0330309 16.7024516,55.2961237 L16.7024516,44.1505567 C15.8317419,43.9867216 15.0224516,43.6470928 14.3155269,43.1699381 L6.3791828,51.0507629" id="Fill-6" fill="#CBCCCB"></path>
                    <path d="M19.0917849,44.1505567 L19.0917849,55.2961237 C23.0430968,55.0318351 26.6355269,53.4676289 29.4379355,51.030433 L21.504,43.152 C20.7910538,43.6387216 19.9733333,43.9843299 19.0917849,44.1505567" id="Fill-7" fill="#CBCCCB"></path>
                    <path d="M0.679225806,18.8278763 C3.6996129,21.8402887 6.7187957,24.852701 9.7391828,27.8639175 C11.3192258,29.4412784 12.9004731,31.0174433 14.4817204,32.5948041 C15.1476989,32.1738557 15.8979785,31.871299 16.7024516,31.7194227 L16.7024516,22.3317938 L16.7024516,14.4868454 C16.1605161,13.948701 12.9076989,11.0032577 9.47423656,7.90713402 C7.70391398,6.31063918 5.88421505,4.67468041 4.3643871,3.30779381 C2.22795699,1.38841237 0.679225806,0 0.679225806,0 L0.679225806,12.953732 L0.679225806,18.8278763" id="Clip-9" fill="#DF565B"></path>
                </g>
                <g id="Imported-Layers-+-Stroke-2" transform="translate(74.666667, 7.175258)" stroke="#81C064" sketch:type="MSShapeGroup">
                    <path d="M8.43010753,14.0431753 L12.9052903,18.4870515 L20.6850753,10.7628866" id="Imported-Layers" stroke-width="3.3984" stroke-linecap="round" stroke-linejoin="round"></path>
                    <path d="M28.9863226,14.3911753 C28.9863226,22.3401649 22.4975484,28.7823505 14.4937634,28.7823505 C6.48877419,28.7823505 0,22.3401649 0,14.3911753 C0,6.44338144 6.48877419,0 14.4937634,0 C22.4975484,0 28.9863226,6.44338144 28.9863226,14.3911753 L28.9863226,14.3911753 Z" id="Stroke-2" stroke-width="0.5"></path>
                </g>
                <path d="M43.6841176,83.8329412 C40.39,83.8329412 37.8370588,86.1388235 37.8370588,89.5152941 C37.8370588,92.8917647 40.39,95.1976471 43.6841176,95.1976471 C45.5782353,95.1976471 46.8464706,94.3741176 47.67,93.3694118 C47.8347059,93.1882353 47.9005882,92.9576471 47.9005882,92.7270588 C47.9005882,92.1670588 47.4229412,91.7058824 46.83,91.7058824 C46.5005882,91.7058824 46.1711765,91.8376471 45.9405882,92.0847059 C45.3311765,92.76 44.5076471,93.1223529 43.6841176,93.1223529 C41.6911765,93.1223529 40.2417647,91.5905882 40.2417647,89.5152941 C40.2417647,87.44 41.6911765,85.9082353 43.6841176,85.9082353 C44.5076471,85.9082353 45.3147059,86.3035294 45.9405882,86.9623529 C46.1711765,87.2094118 46.4841176,87.3411765 46.7970588,87.3411765 C47.4064706,87.3411765 47.9170588,86.88 47.9170588,86.2870588 C47.9170588,86.0729412 47.8347059,85.8258824 47.6864706,85.6447059 C46.8464706,84.64 45.5782353,83.8329412 43.6841176,83.8329412 L43.6841176,83.8329412 Z M61.0123529,93.6823529 L61.0123529,85.0682353 C61.0123529,84.4423529 60.4852941,83.9152941 59.8594118,83.9152941 C59.2005882,83.9152941 58.6735294,84.4423529 58.6735294,85.0682353 L58.6735294,90.9152941 L53.9958824,84.5576471 C53.6994118,84.1458824 53.2052941,83.9152941 52.7111765,83.9152941 C51.8382353,83.9152941 51.1794118,84.64 51.1794118,85.4141176 L51.1794118,93.9458824 C51.1794118,94.5717647 51.7064706,95.0988235 52.3323529,95.0988235 C52.9911765,95.0988235 53.5182353,94.5717647 53.5182353,93.9458824 L53.5182353,87.8352941 L58.3935294,94.5058824 C58.6735294,94.8847059 59.1182353,95.0988235 59.5629412,95.0988235 C60.4029412,95.0988235 61.0123529,94.4235294 61.0123529,93.6823529 L61.0123529,93.6823529 Z M73.4323529,85.0023529 C73.4323529,84.4588235 72.9876471,83.9317647 72.3123529,83.9317647 C71.9170588,83.9317647 71.5547059,84.1294118 71.3405882,84.4752941 L68.9194118,88.4282353 L66.4488235,84.4588235 C66.2347059,84.1129412 65.8558824,83.9317647 65.4935294,83.9317647 C64.8347059,83.9317647 64.3735294,84.4752941 64.3735294,85.0023529 C64.3735294,85.2 64.4229412,85.3976471 64.5382353,85.5623529 L67.75,90.5035294 L67.75,93.9458824 C67.75,94.5717647 68.2770588,95.0988235 68.9029412,95.0988235 C69.5617647,95.0988235 70.0888235,94.5717647 70.0888235,93.9458824 L70.0888235,90.5035294 L73.2676471,85.5788235 C73.3829412,85.3976471 73.4323529,85.2 73.4323529,85.0023529 L73.4323529,85.0023529 Z" id="CNY" fill="#DF565B" sketch:type="MSShapeGroup"></path>
            </g>
        </g>
    </g>
</svg>