<?xml version="1.0" encoding="UTF-8" standalone="no"?>
<svg width="128px" height="128px" viewBox="0 0 128 128" version="1.1" xmlns="http://www.w3.org/2000/svg" xmlns:xlink="http://www.w3.org/1999/xlink" xmlns:sketch="http://www.bohemiancoding.com/sketch/ns">
    <!-- Generator: Sketch 3.2 (9961) - http://www.bohemiancoding.com/sketch -->
    <title>bitBTC-accepted-flat-square-2</title>
    <desc>Created with Sketch.</desc>
    <defs>
        <linearGradient x1="50%" y1="0%" x2="50%" y2="100%" id="linearGradient-1">
            <stop stop-color="#FFFFFF" stop-opacity="0.5" offset="0%"></stop>
            <stop stop-color="#000000" stop-opacity="0.5" offset="100%"></stop>
        </linearGradient>
        <path id="path-2" d="M109.369806,111.597979 L2.59647312,111.597979 C1.32593548,111.597979 0.285419355,110.565938 0.285419355,109.303093 L0.285419355,3.27670103 C0.285419355,2.01505155 1.32593548,0.981814433 2.59647312,0.981814433 L109.369806,0.981814433 C110.640344,0.981814433 111.68086,2.01505155 111.68086,3.27670103 L111.68086,109.303093 C111.68086,110.565938 110.640344,111.597979 109.369806,111.597979 L109.369806,111.597979 Z"></path>
    </defs>
    <g id="BitAsset-Logo-+-Icons---Fonts-outlined-" stroke="none" stroke-width="1" fill="none" fill-rule="evenodd" sketch:type="MSPage">
        <g id="bitBTC-accepted-flat-square-2" sketch:type="MSArtboardGroup">
            <g id="Group" sketch:type="MSLayerGroup" transform="translate(7.000000, 5.000000)">
                <g id="Imported-Layers">
                    <g id="Fill-1-+-Fill-2-+-Stroke-3">
                        <path d="M109.369806,114.984701 L2.59647312,114.984701 C1.32593548,114.984701 0.285419355,113.951464 0.285419355,112.689814 L0.285419355,4.97006186 C0.285419355,3.70841237 1.32593548,2.67517526 2.59647312,2.67517526 L109.369806,2.67517526 C110.640344,2.67517526 111.68086,3.70841237 111.68086,4.97006186 L111.68086,112.689814 C111.68086,113.951464 110.640344,114.984701 109.369806,114.984701" id="Fill-1" fill="#B6B8B4" sketch:type="MSShapeGroup"></path>
                        <g id="Fill-2">
                            <use fill="#FFFFFF" sketch:type="MSShapeGroup" xlink:href="#path-2"></use>
                            <use fill-opacity="0.200000018" fill="url(#linearGradient-1)" xlink:href="#path-2"></use>
                        </g>
                        <path d="M2.59647312,111.597979 C1.32593548,111.597979 0.285419355,110.565938 0.285419355,109.303093 L0.285419355,3.27670103 C0.285419355,2.01505155 1.32593548,0.981814433 2.59647312,0.981814433 L109.369806,0.981814433 C110.640344,0.981814433 111.68086,2.01505155 111.68086,3.27670103 L111.68086,109.303093 C111.68086,110.565938 110.640344,111.597979 109.369806,111.597979 L2.59647312,111.597979 Z" id="Stroke-3" stroke="#E4E5E3" stroke-width="0.5" sketch:type="MSShapeGroup"></path>
                    </g>
                </g>
                <g id="Imported-Layers" transform="translate(24.086022, 13.154639)">
                    <g id="Group-10"></g>
                    <g id="Fill-11-+-Fill-12-+-Fill-13-+-Group" transform="translate(13.247312, 4.783505)" sketch:type="MSShapeGroup">
                        <g id="Group">
                            <path d="M12.643957,34.3539381 L0.41427957,22.2193814 L0.41427957,36.7480825 L11.6383656,36.7480825 C11.8057634,35.8738969 12.1538065,35.0618969 12.643957,34.3539381" id="Fill-1" fill="#CBCCCB"></path>
                            <path d="M11.6383656,39.1218969 L0.41427957,39.1218969 C0.679225806,43.0348041 2.24602151,46.5925361 4.68954839,49.3729485 L12.6258925,41.4921237 C12.1453763,40.7901443 11.8033548,39.9865155 11.6383656,39.1218969" id="Fill-2" fill="#CBCCCB"></path>
                            <path d="M29.4150538,24.8192165 C26.6162581,22.3939794 23.0322581,20.8369485 19.0917849,20.5738557 L19.0917849,31.7194227 C19.9636989,31.8844536 20.7717849,32.2228866 21.4787097,32.7012371 L29.4150538,24.8192165" id="Fill-3" fill="#CBCCCB"></path>
                            <path d="M23.2755269,41.3270928 L31.2311398,49.2270515 C33.6024086,46.4693608 35.119828,42.9666392 35.3811613,39.1218969 L24.1570753,39.1218969 C24.004129,39.9207423 23.7006452,40.6657732 23.2755269,41.3270928" id="Fill-4" fill="#CBCCCB"></path>
                            <path d="M24.1570753,36.7480825 L35.3811613,36.7480825 C35.1150108,32.8363711 33.5482151,29.2774433 31.1046882,26.4982268 L23.1683441,34.3790515 C23.6500645,35.0798351 23.9908817,35.8834639 24.1570753,36.7480825" id="Fill-5" fill="#CBCCCB"></path>
                            <path d="M6.3791828,51.0507629 C9.1791828,53.4771959 12.7619785,55.0330309 16.7024516,55.2961237 L16.7024516,44.1505567 C15.8317419,43.9867216 15.0224516,43.6470928 14.3155269,43.1699381 L6.3791828,51.0507629" id="Fill-6" fill="#CBCCCB"></path>
                            <path d="M19.0917849,44.1505567 L19.0917849,55.2961237 C23.0430968,55.0318351 26.6355269,53.4676289 29.4379355,51.030433 L21.504,43.152 C20.7910538,43.6387216 19.9733333,43.9843299 19.0917849,44.1505567" id="Fill-7" fill="#CBCCCB"></path>
                            <path d="M0.679225806,18.8278763 C3.6996129,21.8402887 6.7187957,24.852701 9.7391828,27.8639175 C11.3192258,29.4412784 12.9004731,31.0174433 14.4817204,32.5948041 C15.1476989,32.1738557 15.8979785,31.871299 16.7024516,31.7194227 L16.7024516,22.3317938 L16.7024516,14.4868454 C16.1605161,13.948701 12.9076989,11.0032577 9.47423656,7.90713402 C7.70391398,6.31063918 5.88421505,4.67468041 4.3643871,3.30779381 C2.22795699,1.38841237 0.679225806,0 0.679225806,0 L0.679225806,12.953732 L0.679225806,18.8278763" id="Clip-9" fill="#EE793F"></path>
                        </g>
                    </g>
                </g>
                <g id="Imported-Layers-+-Stroke-2" transform="translate(74.666667, 7.175258)" stroke="#81C064" sketch:type="MSShapeGroup">
                    <path d="M8.43010753,14.0431753 L12.9052903,18.4870515 L20.6850753,10.7628866" id="Imported-Layers" stroke-width="3.3984" stroke-linecap="round" stroke-linejoin="round"></path>
                    <path d="M28.9863226,14.3911753 C28.9863226,22.3401649 22.4975484,28.7823505 14.4937634,28.7823505 C6.48877419,28.7823505 0,22.3401649 0,14.3911753 C0,6.44338144 6.48877419,0 14.4937634,0 C22.4975484,0 28.9863226,6.44338144 28.9863226,14.3911753 L28.9863226,14.3911753 Z" id="Stroke-2" stroke-width="0.5"></path>
                </g>
                <path d="M47.7949083,92.3548817 C47.7949083,90.9713523 46.8560848,89.8348817 45.686673,89.6537053 C46.7243201,89.4395876 47.5807906,88.5172347 47.5807906,87.1337053 C47.5807906,85.6678229 46.5102024,84.3337053 44.4184377,84.3337053 L39.9549083,84.3337053 C39.2302024,84.3337053 38.6372612,84.9266465 38.6372612,85.6513523 L38.6372612,94.0019406 C38.6372612,94.7266465 39.2302024,95.3195876 39.9549083,95.3195876 L44.5996142,95.3195876 C46.6913789,95.3195876 47.7949083,94.0019406 47.7949083,92.3548817 L47.7949083,92.3548817 Z M45.1925553,87.54547 C45.1925553,88.2372347 44.6984377,88.7313523 43.9078495,88.7313523 L40.9760848,88.7313523 L40.9760848,86.343117 L43.9078495,86.343117 C44.6984377,86.343117 45.1925553,86.8537053 45.1925553,87.54547 L45.1925553,87.54547 Z M45.406673,92.02547 C45.406673,92.8160582 44.8796142,93.2937053 43.9902024,93.2937053 L40.9760848,93.2937053 L40.9760848,90.7407641 L43.9902024,90.7407641 C44.9125553,90.7407641 45.406673,91.3337053 45.406673,92.02547 L45.406673,92.02547 Z M59.0125553,85.3713523 C59.0125553,84.7948817 58.5513789,84.3337053 58.0078495,84.3337053 L51.0737318,84.3337053 C50.5137318,84.3337053 50.0525553,84.7948817 50.0525553,85.3384112 C50.0525553,85.9313523 50.5137318,86.3925288 51.0737318,86.3925288 L53.3631436,86.3925288 L53.3631436,94.2489994 C53.3631436,94.8913523 53.8902024,95.4184112 54.5325553,95.4184112 C55.1913789,95.4184112 55.7184377,94.8913523 55.7184377,94.2489994 L55.7184377,86.3925288 L58.0078495,86.3925288 C58.5513789,86.3925288 59.0125553,85.9313523 59.0125553,85.3713523 L59.0125553,85.3713523 Z M66.8372612,84.1525288 C63.5431436,84.1525288 60.9902024,86.4584112 60.9902024,89.8348817 C60.9902024,93.2113523 63.5431436,95.5172347 66.8372612,95.5172347 C68.7313789,95.5172347 69.9996142,94.6937053 70.8231436,93.6889994 C70.9878495,93.5078229 71.0537318,93.2772347 71.0537318,93.0466465 C71.0537318,92.4866465 70.5760848,92.02547 69.9831436,92.02547 C69.6537318,92.02547 69.3243201,92.1572347 69.0937318,92.4042935 C68.4843201,93.0795876 67.6607906,93.4419406 66.8372612,93.4419406 C64.8443201,93.4419406 63.3949083,91.9101759 63.3949083,89.8348817 C63.3949083,87.7595876 64.8443201,86.2278229 66.8372612,86.2278229 C67.6607906,86.2278229 68.4678495,86.623117 69.0937318,87.2819406 C69.3243201,87.5289994 69.6372612,87.6607641 69.9502024,87.6607641 C70.5596142,87.6607641 71.0702024,87.1995876 71.0702024,86.6066465 C71.0702024,86.3925288 70.9878495,86.14547 70.8396142,85.9642935 C69.9996142,84.9595876 68.7313789,84.1525288 66.8372612,84.1525288 L66.8372612,84.1525288 Z" id="BTC" fill="#EE793F" sketch:type="MSShapeGroup"></path>
            </g>
        </g>
    </g>
</svg>
