<?xml version="1.0" encoding="UTF-8" standalone="no"?>
<svg width="128px" height="128px" viewBox="0 0 128 128" version="1.1" xmlns="http://www.w3.org/2000/svg" xmlns:xlink="http://www.w3.org/1999/xlink" xmlns:sketch="http://www.bohemiancoding.com/sketch/ns">
    <!-- Generator: Sketch 3.2 (9961) - http://www.bohemiancoding.com/sketch -->
    <title>bitEUR-accepted-flat-square-2</title>
    <desc>Created with Sketch.</desc>
    <defs>
        <linearGradient x1="50%" y1="0%" x2="50%" y2="100%" id="linearGradient-1">
            <stop stop-color="#FFFFFF" stop-opacity="0.5" offset="0%"></stop>
            <stop stop-color="#000000" stop-opacity="0.5" offset="100%"></stop>
        </linearGradient>
        <path id="path-2" d="M109.369806,111.597979 L2.59647312,111.597979 C1.32593548,111.597979 0.285419355,110.565938 0.285419355,109.303093 L0.285419355,3.27670103 C0.285419355,2.01505155 1.32593548,0.981814433 2.59647312,0.981814433 L109.369806,0.981814433 C110.640344,0.981814433 111.68086,2.01505155 111.68086,3.27670103 L111.68086,109.303093 C111.68086,110.565938 110.640344,111.597979 109.369806,111.597979 L109.369806,111.597979 Z"></path>
    </defs>
    <g id="BitAsset-Logo-+-Icons---Fonts-outlined-" stroke="none" stroke-width="1" fill="none" fill-rule="evenodd" sketch:type="MSPage">
        <g id="bitEUR-accepted-flat-square-2" sketch:type="MSArtboardGroup">
            <g id="Group" sketch:type="MSLayerGroup" transform="translate(7.000000, 5.000000)">
                <g id="Fill-1-+-Fill-2-+-Stroke-3" transform="translate(0.000000, 0.000000)">
                    <path d="M109.369806,114.984701 L2.59647312,114.984701 C1.32593548,114.984701 0.285419355,113.951464 0.285419355,112.689814 L0.285419355,4.97006186 C0.285419355,3.70841237 1.32593548,2.67517526 2.59647312,2.67517526 L109.369806,2.67517526 C110.640344,2.67517526 111.68086,3.70841237 111.68086,4.97006186 L111.68086,112.689814 C111.68086,113.951464 110.640344,114.984701 109.369806,114.984701" id="Fill-1" fill="#B6B8B4" sketch:type="MSShapeGroup"></path>
                    <g id="Fill-2">
                        <use fill="#FFFFFF" sketch:type="MSShapeGroup" xlink:href="#path-2"></use>
                        <use fill-opacity="0.200000018" fill="url(#linearGradient-1)" xlink:href="#path-2"></use>
                    </g>
                    <path d="M2.59647312,111.597979 C1.32593548,111.597979 0.285419355,110.565938 0.285419355,109.303093 L0.285419355,3.27670103 C0.285419355,2.01505155 1.32593548,0.981814433 2.59647312,0.981814433 L109.369806,0.981814433 C110.640344,0.981814433 111.68086,2.01505155 111.68086,3.27670103 L111.68086,109.303093 C111.68086,110.565938 110.640344,111.597979 109.369806,111.597979 L2.59647312,111.597979 Z" id="Stroke-3" stroke="#E4E5E3" stroke-width="0.5" sketch:type="MSShapeGroup"></path>
                </g>
                <g transform="translate(38.000000, 18.000000)" sketch:type="MSShapeGroup">
                    <path d="M12.643957,34.3539381 L0.41427957,22.2193814 L0.41427957,36.7480825 L11.6383656,36.7480825 C11.8057634,35.8738969 12.1538065,35.0618969 12.643957,34.3539381" id="Fill-1" fill="#CBCCCB"></path>
                    <path d="M11.6383656,39.1218969 L0.41427957,39.1218969 C0.679225806,43.0348041 2.24602151,46.5925361 4.68954839,49.3729485 L12.6258925,41.4921237 C12.1453763,40.7901443 11.8033548,39.9865155 11.6383656,39.1218969" id="Fill-2" fill="#CBCCCB"></path>
                    <path d="M29.4150538,24.8192165 C26.6162581,22.3939794 23.0322581,20.8369485 19.0917849,20.5738557 L19.0917849,31.7194227 C19.9636989,31.8844536 20.7717849,32.2228866 21.4787097,32.7012371 L29.4150538,24.8192165" id="Fill-3" fill="#CBCCCB"></path>
                    <path d="M23.2755269,41.3270928 L31.2311398,49.2270515 C33.6024086,46.4693608 35.119828,42.9666392 35.3811613,39.1218969 L24.1570753,39.1218969 C24.004129,39.9207423 23.7006452,40.6657732 23.2755269,41.3270928" id="Fill-4" fill="#CBCCCB"></path>
                    <path d="M24.1570753,36.7480825 L35.3811613,36.7480825 C35.1150108,32.8363711 33.5482151,29.2774433 31.1046882,26.4982268 L23.1683441,34.3790515 C23.6500645,35.0798351 23.9908817,35.8834639 24.1570753,36.7480825" id="Fill-5" fill="#CBCCCB"></path>
                    <path d="M6.3791828,51.0507629 C9.1791828,53.4771959 12.7619785,55.0330309 16.7024516,55.2961237 L16.7024516,44.1505567 C15.8317419,43.9867216 15.0224516,43.6470928 14.3155269,43.1699381 L6.3791828,51.0507629" id="Fill-6" fill="#CBCCCB"></path>
                    <path d="M19.0917849,44.1505567 L19.0917849,55.2961237 C23.0430968,55.0318351 26.6355269,53.4676289 29.4379355,51.030433 L21.504,43.152 C20.7910538,43.6387216 19.9733333,43.9843299 19.0917849,44.1505567" id="Fill-7" fill="#CBCCCB"></path>
                    <path d="M0.679225806,18.8278763 C3.6996129,21.8402887 6.7187957,24.852701 9.7391828,27.8639175 C11.3192258,29.4412784 12.9004731,31.0174433 14.4817204,32.5948041 C15.1476989,32.1738557 15.8979785,31.871299 16.7024516,31.7194227 L16.7024516,22.3317938 L16.7024516,14.4868454 C16.1605161,13.948701 12.9076989,11.0032577 9.47423656,7.90713402 C7.70391398,6.31063918 5.88421505,4.67468041 4.3643871,3.30779381 C2.22795699,1.38841237 0.679225806,0 0.679225806,0 L0.679225806,12.953732 L0.679225806,18.8278763" id="Clip-9" fill="#0E8CB9"></path>
                </g>
                <g id="Imported-Layers-+-Stroke-2" transform="translate(74.666667, 7.175258)" stroke="#81C064" sketch:type="MSShapeGroup">
                    <path d="M8.43010753,14.0431753 L12.9052903,18.4870515 L20.6850753,10.7628866" id="Imported-Layers" stroke-width="3.3984" stroke-linecap="round" stroke-linejoin="round"></path>
                    <path d="M28.9863226,14.3911753 C28.9863226,22.3401649 22.4975484,28.7823505 14.4937634,28.7823505 C6.48877419,28.7823505 0,22.3401649 0,14.3911753 C0,6.44338144 6.48877419,0 14.4937634,0 C22.4975484,0 28.9863226,6.44338144 28.9863226,14.3911753 L28.9863226,14.3911753 Z" id="Stroke-2" stroke-width="0.5"></path>
                </g>
                <path d="M47.0770588,93.9458824 C47.0770588,93.4023529 46.6158824,92.9411765 46.0723529,92.9411765 L41.5429412,92.9411765 L41.5429412,90.4541176 L45.9570588,90.4541176 C46.5005882,90.4541176 46.9617647,89.9929412 46.9617647,89.4329412 C46.9617647,88.8564706 46.5005882,88.3952941 45.9570588,88.3952941 L41.5429412,88.3952941 L41.5429412,86.0729412 L46.0723529,86.0729412 C46.6158824,86.0729412 47.0770588,85.6117647 47.0770588,85.0517647 C47.0770588,84.4752941 46.6158824,84.0141176 46.0723529,84.0141176 L40.5217647,84.0141176 C39.7970588,84.0141176 39.2041176,84.6070588 39.2041176,85.3317647 L39.2041176,93.6823529 C39.2041176,94.4070588 39.7970588,95 40.5217647,95 L46.0723529,95 C46.6158824,95 47.0770588,94.5388235 47.0770588,93.9458824 L47.0770588,93.9458824 Z M60.2217647,90.6023529 L60.2217647,85.0847059 C60.2217647,84.4423529 59.6947059,83.9152941 59.0523529,83.9152941 C58.3605882,83.9152941 57.8335294,84.4423529 57.8335294,85.0847059 L57.8335294,90.5364706 C57.8335294,92.0682353 56.9605882,93.1223529 55.2641176,93.1223529 C53.5676471,93.1223529 52.6782353,92.0682353 52.6782353,90.5364706 L52.6782353,85.0847059 C52.6782353,84.4423529 52.1511765,83.9152941 51.5088235,83.9152941 C50.8335294,83.9152941 50.3064706,84.4423529 50.3064706,85.0847059 L50.3064706,90.6188235 C50.3064706,93.32 51.9205882,95.1976471 55.2641176,95.1976471 C58.6076471,95.1976471 60.2217647,93.3364706 60.2217647,90.6023529 L60.2217647,90.6023529 Z M72.7076471,87.5552941 C72.7076471,85.5129412 71.3076471,84.0141176 69.0182353,84.0141176 L65.1970588,84.0141176 C64.4723529,84.0141176 63.8794118,84.6070588 63.8794118,85.3317647 L63.8794118,93.9458824 C63.8794118,94.5717647 64.4064706,95.0988235 65.0323529,95.0988235 C65.6911765,95.0988235 66.2182353,94.5717647 66.2182353,93.9458824 L66.2182353,91.0964706 L67.9311765,91.0964706 L69.8088235,94.5058824 C70.0229412,94.8847059 70.4017647,95.0988235 70.8135294,95.0988235 C71.5052941,95.0988235 71.9664706,94.5058824 71.9664706,93.9458824 C71.9664706,93.7647059 71.9170588,93.5670588 71.8182353,93.3858824 L70.3029412,90.8164706 C71.4888235,90.5364706 72.7076471,89.4988235 72.7076471,87.5552941 L72.7076471,87.5552941 Z M68.6723529,86.0729412 C69.6111765,86.0729412 70.3194118,86.6329412 70.3194118,87.5552941 C70.3194118,88.4776471 69.6111765,89.0376471 68.6723529,89.0376471 L66.2182353,89.0376471 L66.2182353,86.0729412 L68.6723529,86.0729412 Z" id="EUR" fill="#0E8CB9" sketch:type="MSShapeGroup"></path>
            </g>
        </g>
    </g>
</svg>