<?xml version="1.0" encoding="UTF-8" standalone="no"?>
<svg width="128px" height="129px" viewBox="0 0 128 129" version="1.1" xmlns="http://www.w3.org/2000/svg" xmlns:xlink="http://www.w3.org/1999/xlink" xmlns:sketch="http://www.bohemiancoding.com/sketch/ns">
    <!-- Generator: Sketch 3.2 (9961) - http://www.bohemiancoding.com/sketch -->
    <title>bitGOLD-accepted-flat-square-2</title>
    <desc>Created with Sketch.</desc>
    <defs>
        <linearGradient x1="50%" y1="0%" x2="50%" y2="100%" id="linearGradient-1">
            <stop stop-color="#FFFFFF" stop-opacity="0.5" offset="0%"></stop>
            <stop stop-color="#000000" stop-opacity="0.5" offset="100%"></stop>
        </linearGradient>
        <path id="path-2" d="M109.369806,111.597979 L2.59647312,111.597979 C1.32593548,111.597979 0.285419355,110.565938 0.285419355,109.303093 L0.285419355,3.27670103 C0.285419355,2.01505155 1.32593548,0.981814433 2.59647312,0.981814433 L109.369806,0.981814433 C110.640344,0.981814433 111.68086,2.01505155 111.68086,3.27670103 L111.68086,109.303093 C111.68086,110.565938 110.640344,111.597979 109.369806,111.597979 L109.369806,111.597979 Z"></path>
    </defs>
    <g id="BitAsset-Logo-+-Icons---Fonts-outlined-" stroke="none" stroke-width="1" fill="none" fill-rule="evenodd" sketch:type="MSPage">
        <g id="bitGOLD-accepted-flat-square-2" sketch:type="MSArtboardGroup" transform="translate(0.000000, 0.000000)">
            <g id="Group" sketch:type="MSLayerGroup" transform="translate(7.000000, 5.000000)">
                <g id="Fill-1-+-Fill-2-+-Stroke-3">
                    <path d="M109.369806,114.984701 L2.59647312,114.984701 C1.32593548,114.984701 0.285419355,113.951464 0.285419355,112.689814 L0.285419355,4.97006186 C0.285419355,3.70841237 1.32593548,2.67517526 2.59647312,2.67517526 L109.369806,2.67517526 C110.640344,2.67517526 111.68086,3.70841237 111.68086,4.97006186 L111.68086,112.689814 C111.68086,113.951464 110.640344,114.984701 109.369806,114.984701" id="Fill-1" fill="#B6B8B4" sketch:type="MSShapeGroup"></path>
                    <g id="Fill-2">
                        <use fill="#FFFFFF" sketch:type="MSShapeGroup" xlink:href="#path-2"></use>
                        <use fill-opacity="0.200000018" fill="url(#linearGradient-1)" xlink:href="#path-2"></use>
                    </g>
                    <path d="M2.59647312,111.597979 C1.32593548,111.597979 0.285419355,110.565938 0.285419355,109.303093 L0.285419355,3.27670103 C0.285419355,2.01505155 1.32593548,0.981814433 2.59647312,0.981814433 L109.369806,0.981814433 C110.640344,0.981814433 111.68086,2.01505155 111.68086,3.27670103 L111.68086,109.303093 C111.68086,110.565938 110.640344,111.597979 109.369806,111.597979 L2.59647312,111.597979 Z" id="Stroke-3" stroke="#E4E5E3" stroke-width="0.5" sketch:type="MSShapeGroup"></path>
                </g>
                <g transform="translate(37.333333, 17.938144)" sketch:type="MSShapeGroup">
                    <path d="M12.643957,34.3539381 L0.41427957,22.2193814 L0.41427957,36.7480825 L11.6383656,36.7480825 C11.8057634,35.8738969 12.1538065,35.0618969 12.643957,34.3539381" id="Fill-1" fill="#CBCCCB"></path>
                    <path d="M11.6383656,39.1218969 L0.41427957,39.1218969 C0.679225806,43.0348041 2.24602151,46.5925361 4.68954839,49.3729485 L12.6258925,41.4921237 C12.1453763,40.7901443 11.8033548,39.9865155 11.6383656,39.1218969" id="Fill-2" fill="#CBCCCB"></path>
                    <path d="M29.4150538,24.8192165 C26.6162581,22.3939794 23.0322581,20.8369485 19.0917849,20.5738557 L19.0917849,31.7194227 C19.9636989,31.8844536 20.7717849,32.2228866 21.4787097,32.7012371 L29.4150538,24.8192165" id="Fill-3" fill="#CBCCCB"></path>
                    <path d="M23.2755269,41.3270928 L31.2311398,49.2270515 C33.6024086,46.4693608 35.119828,42.9666392 35.3811613,39.1218969 L24.1570753,39.1218969 C24.004129,39.9207423 23.7006452,40.6657732 23.2755269,41.3270928" id="Fill-4" fill="#CBCCCB"></path>
                    <path d="M24.1570753,36.7480825 L35.3811613,36.7480825 C35.1150108,32.8363711 33.5482151,29.2774433 31.1046882,26.4982268 L23.1683441,34.3790515 C23.6500645,35.0798351 23.9908817,35.8834639 24.1570753,36.7480825" id="Fill-5" fill="#CBCCCB"></path>
                    <path d="M6.3791828,51.0507629 C9.1791828,53.4771959 12.7619785,55.0330309 16.7024516,55.2961237 L16.7024516,44.1505567 C15.8317419,43.9867216 15.0224516,43.6470928 14.3155269,43.1699381 L6.3791828,51.0507629" id="Fill-6" fill="#CBCCCB"></path>
                    <path d="M19.0917849,44.1505567 L19.0917849,55.2961237 C23.0430968,55.0318351 26.6355269,53.4676289 29.4379355,51.030433 L21.504,43.152 C20.7910538,43.6387216 19.9733333,43.9843299 19.0917849,44.1505567" id="Fill-7" fill="#CBCCCB"></path>
                    <path d="M0.679225806,18.8278763 C3.6996129,21.8402887 6.7187957,24.852701 9.7391828,27.8639175 C11.3192258,29.4412784 12.9004731,31.0174433 14.4817204,32.5948041 C15.1476989,32.1738557 15.8979785,31.871299 16.7024516,31.7194227 L16.7024516,22.3317938 L16.7024516,14.4868454 C16.1605161,13.948701 12.9076989,11.0032577 9.47423656,7.90713402 C7.70391398,6.31063918 5.88421505,4.67468041 4.3643871,3.30779381 C2.22795699,1.38841237 0.679225806,0 0.679225806,0 L0.679225806,12.953732 L0.679225806,18.8278763" id="Clip-9" fill="#D3B857"></path>
                </g>
                <g id="Imported-Layers-+-Stroke-2" transform="translate(74.666667, 7.175258)" stroke="#81C064" sketch:type="MSShapeGroup">
                    <path d="M8.43010753,14.0431753 L12.9052903,18.4870515 L20.6850753,10.7628866" id="Imported-Layers" stroke-width="3.3984" stroke-linecap="round" stroke-linejoin="round"></path>
                    <path d="M28.9863226,14.3911753 C28.9863226,22.3401649 22.4975484,28.7823505 14.4937634,28.7823505 C6.48877419,28.7823505 0,22.3401649 0,14.3911753 C0,6.44338144 6.48877419,0 14.4937634,0 C22.4975484,0 28.9863226,6.44338144 28.9863226,14.3911753 L28.9863226,14.3911753 Z" id="Stroke-2" stroke-width="0.5"></path>
                </g>
                <path d="M41.0331436,92.4207641 L41.0331436,90.5595876 C41.0331436,89.8348817 40.4402024,89.2419406 39.7154965,89.2419406 L36.7013789,89.2419406 C36.1413789,89.2419406 35.696673,89.6866465 35.696673,90.2466465 C35.696673,90.8395876 36.1413789,91.2842935 36.7013789,91.2842935 L38.6943201,91.2842935 L38.6943201,92.6019406 C38.2496142,93.0137053 37.3272612,93.4419406 36.3554965,93.4419406 C34.3625553,93.4419406 32.9131436,91.9101759 32.9131436,89.8348817 C32.9131436,87.7595876 34.3625553,86.2278229 36.3554965,86.2278229 C37.1954965,86.2278229 38.0190259,86.5901759 38.6449083,87.1995876 C38.8590259,87.4137053 39.1554965,87.5289994 39.4354965,87.5289994 C40.0119671,87.5289994 40.5390259,87.0513523 40.5390259,86.4748817 C40.5390259,86.2278229 40.4402024,85.9642935 40.2590259,85.7666465 C39.4025553,84.8442935 38.1343201,84.1525288 36.3554965,84.1525288 C33.1437318,84.1525288 30.5084377,86.3595876 30.5084377,89.8348817 C30.5084377,93.2937053 33.1437318,95.5337053 36.3554965,95.5337053 C38.5790259,95.5337053 41.0331436,94.4137053 41.0331436,92.4207641 L41.0331436,92.4207641 Z M55.3472612,89.8348817 C55.3472612,86.5242935 52.9260848,84.1525288 49.5990259,84.1525288 C46.2884377,84.1525288 43.8672612,86.5242935 43.8672612,89.8348817 C43.8672612,93.14547 46.2884377,95.5172347 49.5990259,95.5172347 C52.9260848,95.5172347 55.3472612,93.14547 55.3472612,89.8348817 L55.3472612,89.8348817 Z M52.9425553,89.8348817 C52.9425553,91.8772347 51.6249083,93.4419406 49.5990259,93.4419406 C47.5731436,93.4419406 46.2719671,91.8772347 46.2719671,89.8348817 C46.2719671,87.7760582 47.5731436,86.2278229 49.5990259,86.2278229 C51.6249083,86.2278229 52.9425553,87.7760582 52.9425553,89.8348817 L52.9425553,89.8348817 Z M65.576673,94.26547 C65.576673,93.7219406 65.1154965,93.2607641 64.5719671,93.2607641 L60.8331436,93.2607641 L60.8331436,85.3878229 C60.8331436,84.7619406 60.3060848,84.2348817 59.6802024,84.2348817 C59.0213789,84.2348817 58.4943201,84.7619406 58.4943201,85.3878229 L58.4943201,94.0019406 C58.4943201,94.7266465 59.0872612,95.3195876 59.8119671,95.3195876 L64.5719671,95.3195876 C65.1154965,95.3195876 65.576673,94.8584112 65.576673,94.26547 L65.576673,94.26547 Z M78.7707906,89.8348817 C78.7707906,86.5242935 76.3825553,84.3337053 72.9402024,84.3337053 L69.9260848,84.3337053 C69.2013789,84.3337053 68.6084377,84.9266465 68.6084377,85.6513523 L68.6084377,94.0019406 C68.6084377,94.7266465 69.2013789,95.3195876 69.9260848,95.3195876 L72.9402024,95.3195876 C76.3825553,95.3195876 78.7707906,93.14547 78.7707906,89.8348817 L78.7707906,89.8348817 Z M76.3825553,89.8348817 C76.3825553,91.6960582 75.1143201,93.2607641 72.9402024,93.2607641 L70.9472612,93.2607641 L70.9472612,86.3925288 L72.9402024,86.3925288 C75.196673,86.3925288 76.3825553,87.8913523 76.3825553,89.8348817 L76.3825553,89.8348817 Z" id="GOLD" fill="#D3B857" sketch:type="MSShapeGroup"></path>
            </g>
        </g>
    </g>
</svg>