<?xml version="1.0" encoding="UTF-8" standalone="no"?>
<svg width="128px" height="128px" viewBox="0 0 128 128" version="1.1" xmlns="http://www.w3.org/2000/svg" xmlns:xlink="http://www.w3.org/1999/xlink" xmlns:sketch="http://www.bohemiancoding.com/sketch/ns">
    <!-- Generator: Sketch 3.2 (9961) - http://www.bohemiancoding.com/sketch -->
    <title>bitSILVER-accepted-flat-square-2</title>
    <desc>Created with Sketch.</desc>
    <defs>
        <linearGradient x1="50%" y1="0%" x2="50%" y2="100%" id="linearGradient-1">
            <stop stop-color="#FFFFFF" stop-opacity="0.5" offset="0%"></stop>
            <stop stop-color="#000000" stop-opacity="0.5" offset="100%"></stop>
        </linearGradient>
        <path id="path-2" d="M109.369806,111.597979 L2.59647312,111.597979 C1.32593548,111.597979 0.285419355,110.565938 0.285419355,109.303093 L0.285419355,3.27670103 C0.285419355,2.01505155 1.32593548,0.981814433 2.59647312,0.981814433 L109.369806,0.981814433 C110.640344,0.981814433 111.68086,2.01505155 111.68086,3.27670103 L111.68086,109.303093 C111.68086,110.565938 110.640344,111.597979 109.369806,111.597979 L109.369806,111.597979 Z"></path>
    </defs>
    <g id="BitAsset-Logo-+-Icons---Fonts-outlined-" stroke="none" stroke-width="1" fill="none" fill-rule="evenodd" sketch:type="MSPage">
        <g id="bitSILVER-accepted-flat-square-2" sketch:type="MSArtboardGroup">
            <g id="Group" sketch:type="MSLayerGroup" transform="translate(7.000000, 5.000000)">
                <g id="Imported-Layers">
                    <g id="Fill-1-+-Fill-2-+-Stroke-3">
                        <path d="M109.369806,114.984701 L2.59647312,114.984701 C1.32593548,114.984701 0.285419355,113.951464 0.285419355,112.689814 L0.285419355,4.97006186 C0.285419355,3.70841237 1.32593548,2.67517526 2.59647312,2.67517526 L109.369806,2.67517526 C110.640344,2.67517526 111.68086,3.70841237 111.68086,4.97006186 L111.68086,112.689814 C111.68086,113.951464 110.640344,114.984701 109.369806,114.984701" id="Fill-1" fill="#B6B8B4" sketch:type="MSShapeGroup"></path>
                        <g id="Fill-2">
                            <use fill="#FFFFFF" sketch:type="MSShapeGroup" xlink:href="#path-2"></use>
                            <use fill-opacity="0.200000018" fill="url(#linearGradient-1)" xlink:href="#path-2"></use>
                        </g>
                        <path d="M2.59647312,111.597979 C1.32593548,111.597979 0.285419355,110.565938 0.285419355,109.303093 L0.285419355,3.27670103 C0.285419355,2.01505155 1.32593548,0.981814433 2.59647312,0.981814433 L109.369806,0.981814433 C110.640344,0.981814433 111.68086,2.01505155 111.68086,3.27670103 L111.68086,109.303093 C111.68086,110.565938 110.640344,111.597979 109.369806,111.597979 L2.59647312,111.597979 Z" id="Stroke-3" stroke="#E4E5E3" stroke-width="0.5" sketch:type="MSShapeGroup"></path>
                    </g>
                </g>
                <g id="Imported-Layers" transform="translate(24.086022, 13.154639)">
                    <g id="Group-10"></g>
                    <g id="Fill-11-+-Fill-12-+-Fill-13-+-Group" transform="translate(13.247312, 4.783505)" sketch:type="MSShapeGroup">
                        <g id="Group">
                            <path d="M12.643957,34.3539381 L0.41427957,22.2193814 L0.41427957,36.7480825 L11.6383656,36.7480825 C11.8057634,35.8738969 12.1538065,35.0618969 12.643957,34.3539381" id="Fill-1" fill="#CBCCCB"></path>
                            <path d="M11.6383656,39.1218969 L0.41427957,39.1218969 C0.679225806,43.0348041 2.24602151,46.5925361 4.68954839,49.3729485 L12.6258925,41.4921237 C12.1453763,40.7901443 11.8033548,39.9865155 11.6383656,39.1218969" id="Fill-2" fill="#CBCCCB"></path>
                            <path d="M29.4150538,24.8192165 C26.6162581,22.3939794 23.0322581,20.8369485 19.0917849,20.5738557 L19.0917849,31.7194227 C19.9636989,31.8844536 20.7717849,32.2228866 21.4787097,32.7012371 L29.4150538,24.8192165" id="Fill-3" fill="#CBCCCB"></path>
                            <path d="M23.2755269,41.3270928 L31.2311398,49.2270515 C33.6024086,46.4693608 35.119828,42.9666392 35.3811613,39.1218969 L24.1570753,39.1218969 C24.004129,39.9207423 23.7006452,40.6657732 23.2755269,41.3270928" id="Fill-4" fill="#CBCCCB"></path>
                            <path d="M24.1570753,36.7480825 L35.3811613,36.7480825 C35.1150108,32.8363711 33.5482151,29.2774433 31.1046882,26.4982268 L23.1683441,34.3790515 C23.6500645,35.0798351 23.9908817,35.8834639 24.1570753,36.7480825" id="Fill-5" fill="#CBCCCB"></path>
                            <path d="M6.3791828,51.0507629 C9.1791828,53.4771959 12.7619785,55.0330309 16.7024516,55.2961237 L16.7024516,44.1505567 C15.8317419,43.9867216 15.0224516,43.6470928 14.3155269,43.1699381 L6.3791828,51.0507629" id="Fill-6" fill="#CBCCCB"></path>
                            <path d="M19.0917849,44.1505567 L19.0917849,55.2961237 C23.0430968,55.0318351 26.6355269,53.4676289 29.4379355,51.030433 L21.504,43.152 C20.7910538,43.6387216 19.9733333,43.9843299 19.0917849,44.1505567" id="Fill-7" fill="#CBCCCB"></path>
                            <path d="M0.679225806,18.8278763 C3.6996129,21.8402887 6.7187957,24.852701 9.7391828,27.8639175 C11.3192258,29.4412784 12.9004731,31.0174433 14.4817204,32.5948041 C15.1476989,32.1738557 15.8979785,31.871299 16.7024516,31.7194227 L16.7024516,22.3317938 L16.7024516,14.4868454 C16.1605161,13.948701 12.9076989,11.0032577 9.47423656,7.90713402 C7.70391398,6.31063918 5.88421505,4.67468041 4.3643871,3.30779381 C2.22795699,1.38841237 0.679225806,0 0.679225806,0 L0.679225806,12.953732 L0.679225806,18.8278763" id="Clip-9" fill="#7BA3A6"></path>
                        </g>
                    </g>
                </g>
                <g id="Imported-Layers-+-Stroke-2" transform="translate(74.666667, 7.175258)" stroke="#81C064" sketch:type="MSShapeGroup">
                    <path d="M8.43010753,14.0431753 L12.9052903,18.4870515 L20.6850753,10.7628866" id="Imported-Layers" stroke-width="3.3984" stroke-linecap="round" stroke-linejoin="round"></path>
                    <path d="M28.9863226,14.3911753 C28.9863226,22.3401649 22.4975484,28.7823505 14.4937634,28.7823505 C6.48877419,28.7823505 0,22.3401649 0,14.3911753 C0,6.44338144 6.48877419,0 14.4937634,0 C22.4975484,0 28.9863226,6.44338144 28.9863226,14.3911753 L28.9863226,14.3911753 Z" id="Stroke-2" stroke-width="0.5"></path>
                </g>
                <path d="M33.7931436,91.9925288 C33.7931436,87.8913523 27.4849083,89.0607641 27.4849083,87.3148817 C27.4849083,86.6560582 28.0449083,86.2113523 29.0496142,86.2113523 C29.856673,86.2113523 30.7131436,86.4089994 31.4707906,86.8372347 C31.6684377,86.9525288 31.8660848,87.0019406 32.0637318,87.0019406 C32.6237318,87.0019406 33.2331436,86.5737053 33.2331436,85.9478229 C33.2331436,85.7501759 33.1672612,85.5525288 33.0354965,85.3878229 C32.4260848,84.5807641 30.5154965,84.1689994 29.2637318,84.1689994 C26.6778495,84.1689994 25.096673,85.6842935 25.096673,87.5125288 C25.096673,91.6466465 31.4213789,90.3125288 31.4213789,92.2560582 C31.4213789,92.8819406 30.7954965,93.4748817 29.5107906,93.4748817 C28.4402024,93.4748817 27.5013789,93.1289994 26.7602024,92.6184112 C26.5790259,92.4866465 26.3484377,92.4372347 26.1343201,92.4372347 C25.5743201,92.4372347 25.0307906,92.8984112 25.0307906,93.5242935 C25.0307906,93.7219406 25.096673,93.9195876 25.2119671,94.0842935 C25.8213789,94.9901759 27.7978495,95.5172347 29.3954965,95.5172347 C32.3602024,95.5172347 33.7931436,94.0019406 33.7931436,91.9925288 L33.7931436,91.9925288 Z M39.2131436,94.26547 L39.2131436,85.3878229 C39.2131436,84.7619406 38.6860848,84.2348817 38.0602024,84.2348817 C37.4013789,84.2348817 36.8743201,84.7619406 36.8743201,85.3878229 L36.8743201,94.26547 C36.8743201,94.8913523 37.4013789,95.4184112 38.0272612,95.4184112 C38.6860848,95.4184112 39.2131436,94.8913523 39.2131436,94.26547 L39.2131436,94.26547 Z M49.9696142,94.26547 C49.9696142,93.7219406 49.5084377,93.2607641 48.9649083,93.2607641 L45.2260848,93.2607641 L45.2260848,85.3878229 C45.2260848,84.7619406 44.6990259,84.2348817 44.0731436,84.2348817 C43.4143201,84.2348817 42.8872612,84.7619406 42.8872612,85.3878229 L42.8872612,94.0019406 C42.8872612,94.7266465 43.4802024,95.3195876 44.2049083,95.3195876 L48.9649083,95.3195876 C49.5084377,95.3195876 49.9696142,94.8584112 49.9696142,94.26547 L49.9696142,94.26547 Z M61.2531436,85.4537053 C61.2531436,84.8278229 60.7425553,84.2348817 60.0013789,84.2348817 C59.4907906,84.2348817 59.0131436,84.5642935 58.8484377,85.0419406 L56.0649083,92.783117 L53.2649083,85.0419406 C53.0837318,84.5478229 52.6060848,84.2348817 52.0954965,84.2348817 C51.3543201,84.2348817 50.8602024,84.8607641 50.8602024,85.4537053 C50.8602024,85.6019406 50.876673,85.7501759 50.9425553,85.8819406 L54.1543201,94.183117 C54.4343201,94.9242935 55.1754965,95.4184112 55.9496142,95.4184112 L56.1802024,95.4184112 C56.9543201,95.4184112 57.6954965,94.9242935 57.9754965,94.183117 L61.1707906,85.8819406 C61.2202024,85.7501759 61.2531436,85.6019406 61.2531436,85.4537053 L61.2531436,85.4537053 Z M72.1578495,94.26547 C72.1578495,93.7219406 71.696673,93.2607641 71.1531436,93.2607641 L66.6237318,93.2607641 L66.6237318,90.7737053 L71.0378495,90.7737053 C71.5813789,90.7737053 72.0425553,90.3125288 72.0425553,89.7525288 C72.0425553,89.1760582 71.5813789,88.7148817 71.0378495,88.7148817 L66.6237318,88.7148817 L66.6237318,86.3925288 L71.1531436,86.3925288 C71.696673,86.3925288 72.1578495,85.9313523 72.1578495,85.3713523 C72.1578495,84.7948817 71.696673,84.3337053 71.1531436,84.3337053 L65.6025553,84.3337053 C64.8778495,84.3337053 64.2849083,84.9266465 64.2849083,85.6513523 L64.2849083,94.0019406 C64.2849083,94.7266465 64.8778495,95.3195876 65.6025553,95.3195876 L71.1531436,95.3195876 C71.696673,95.3195876 72.1578495,94.8584112 72.1578495,94.26547 L72.1578495,94.26547 Z M84.2154965,87.8748817 C84.2154965,85.8325288 82.8154965,84.3337053 80.5260848,84.3337053 L76.7049083,84.3337053 C75.9802024,84.3337053 75.3872612,84.9266465 75.3872612,85.6513523 L75.3872612,94.26547 C75.3872612,94.8913523 75.9143201,95.4184112 76.5402024,95.4184112 C77.1990259,95.4184112 77.7260848,94.8913523 77.7260848,94.26547 L77.7260848,91.4160582 L79.4390259,91.4160582 L81.316673,94.82547 C81.5307906,95.2042935 81.9096142,95.4184112 82.3213789,95.4184112 C83.0131436,95.4184112 83.4743201,94.82547 83.4743201,94.26547 C83.4743201,94.0842935 83.4249083,93.8866465 83.3260848,93.70547 L81.8107906,91.1360582 C82.996673,90.8560582 84.2154965,89.8184112 84.2154965,87.8748817 L84.2154965,87.8748817 Z M80.1802024,86.3925288 C81.1190259,86.3925288 81.8272612,86.9525288 81.8272612,87.8748817 C81.8272612,88.7972347 81.1190259,89.3572347 80.1802024,89.3572347 L77.7260848,89.3572347 L77.7260848,86.3925288 L80.1802024,86.3925288 Z" id="SILVER" fill="#7BA3A6" sketch:type="MSShapeGroup"></path>
            </g>
        </g>
    </g>
</svg>