<?xml version="1.0" encoding="UTF-8" standalone="no"?>
<svg width="128px" height="128px" viewBox="0 0 128 128" version="1.1" xmlns="http://www.w3.org/2000/svg" xmlns:xlink="http://www.w3.org/1999/xlink" xmlns:sketch="http://www.bohemiancoding.com/sketch/ns">
    <!-- Generator: Sketch 3.2 (9961) - http://www.bohemiancoding.com/sketch -->
    <title>bitUSD-accepted-flat-square-2</title>
    <desc>Created with Sketch.</desc>
    <defs>
        <linearGradient x1="50%" y1="0%" x2="50%" y2="100%" id="linearGradient-1">
            <stop stop-color="#FFFFFF" stop-opacity="0.5" offset="0%"></stop>
            <stop stop-color="#000000" stop-opacity="0.5" offset="100%"></stop>
        </linearGradient>
        <path id="path-2" d="M109.369806,111.597979 L2.59647312,111.597979 C1.32593548,111.597979 0.285419355,110.565938 0.285419355,109.303093 L0.285419355,3.27670103 C0.285419355,2.01505155 1.32593548,0.981814433 2.59647312,0.981814433 L109.369806,0.981814433 C110.640344,0.981814433 111.68086,2.01505155 111.68086,3.27670103 L111.68086,109.303093 C111.68086,110.565938 110.640344,111.597979 109.369806,111.597979 L109.369806,111.597979 Z"></path>
    </defs>
    <g id="BitAsset-Logo-+-Icons---Fonts-outlined-" stroke="none" stroke-width="1" fill="none" fill-rule="evenodd" sketch:type="MSPage">
        <g id="bitUSD-accepted-flat-square-2" sketch:type="MSArtboardGroup">
            <g id="Group" sketch:type="MSLayerGroup" transform="translate(7.000000, 5.000000)">
                <g id="Imported-Layers">
                    <g id="Fill-1-+-Fill-2-+-Stroke-3">
                        <path d="M109.369806,114.984701 L2.59647312,114.984701 C1.32593548,114.984701 0.285419355,113.951464 0.285419355,112.689814 L0.285419355,4.97006186 C0.285419355,3.70841237 1.32593548,2.67517526 2.59647312,2.67517526 L109.369806,2.67517526 C110.640344,2.67517526 111.68086,3.70841237 111.68086,4.97006186 L111.68086,112.689814 C111.68086,113.951464 110.640344,114.984701 109.369806,114.984701" id="Fill-1" fill="#B6B8B4" sketch:type="MSShapeGroup"></path>
                        <g id="Fill-2">
                            <use fill="#FFFFFF" sketch:type="MSShapeGroup" xlink:href="#path-2"></use>
                            <use fill-opacity="0.200000018" fill="url(#linearGradient-1)" xlink:href="#path-2"></use>
                        </g>
                        <path d="M2.59647312,111.597979 C1.32593548,111.597979 0.285419355,110.565938 0.285419355,109.303093 L0.285419355,3.27670103 C0.285419355,2.01505155 1.32593548,0.981814433 2.59647312,0.981814433 L109.369806,0.981814433 C110.640344,0.981814433 111.68086,2.01505155 111.68086,3.27670103 L111.68086,109.303093 C111.68086,110.565938 110.640344,111.597979 109.369806,111.597979 L2.59647312,111.597979 Z" id="Stroke-3" stroke="#E4E5E3" stroke-width="0.5" sketch:type="MSShapeGroup"></path>
                    </g>
                </g>
                <g id="Imported-Layers" transform="translate(24.086022, 13.154639)">
                    <g id="Group-10"></g>
                    <g id="Fill-11-+-Fill-12-+-Fill-13-+-Group" transform="translate(14.247312, 4.783505)" sketch:type="MSShapeGroup">
                        <g id="Group">
                            <path d="M12.643957,34.3539381 L0.41427957,22.2193814 L0.41427957,36.7480825 L11.6383656,36.7480825 C11.8057634,35.8738969 12.1538065,35.0618969 12.643957,34.3539381" id="Fill-1" fill="#CBCCCB"></path>
                            <path d="M11.6383656,39.1218969 L0.41427957,39.1218969 C0.679225806,43.0348041 2.24602151,46.5925361 4.68954839,49.3729485 L12.6258925,41.4921237 C12.1453763,40.7901443 11.8033548,39.9865155 11.6383656,39.1218969" id="Fill-2" fill="#CBCCCB"></path>
                            <path d="M29.4150538,24.8192165 C26.6162581,22.3939794 23.0322581,20.8369485 19.0917849,20.5738557 L19.0917849,31.7194227 C19.9636989,31.8844536 20.7717849,32.2228866 21.4787097,32.7012371 L29.4150538,24.8192165" id="Fill-3" fill="#CBCCCB"></path>
                            <path d="M23.2755269,41.3270928 L31.2311398,49.2270515 C33.6024086,46.4693608 35.119828,42.9666392 35.3811613,39.1218969 L24.1570753,39.1218969 C24.004129,39.9207423 23.7006452,40.6657732 23.2755269,41.3270928" id="Fill-4" fill="#CBCCCB"></path>
                            <path d="M24.1570753,36.7480825 L35.3811613,36.7480825 C35.1150108,32.8363711 33.5482151,29.2774433 31.1046882,26.4982268 L23.1683441,34.3790515 C23.6500645,35.0798351 23.9908817,35.8834639 24.1570753,36.7480825" id="Fill-5" fill="#CBCCCB"></path>
                            <path d="M6.3791828,51.0507629 C9.1791828,53.4771959 12.7619785,55.0330309 16.7024516,55.2961237 L16.7024516,44.1505567 C15.8317419,43.9867216 15.0224516,43.6470928 14.3155269,43.1699381 L6.3791828,51.0507629" id="Fill-6" fill="#CBCCCB"></path>
                            <path d="M19.0917849,44.1505567 L19.0917849,55.2961237 C23.0430968,55.0318351 26.6355269,53.4676289 29.4379355,51.030433 L21.504,43.152 C20.7910538,43.6387216 19.9733333,43.9843299 19.0917849,44.1505567" id="Fill-7" fill="#CBCCCB"></path>
                            <path d="M0.679225806,18.8278763 C3.6996129,21.8402887 6.7187957,24.852701 9.7391828,27.8639175 C11.3192258,29.4412784 12.9004731,31.0174433 14.4817204,32.5948041 C15.1476989,32.1738557 15.8979785,31.871299 16.7024516,31.7194227 L16.7024516,22.3317938 L16.7024516,14.4868454 C16.1605161,13.948701 12.9076989,11.0032577 9.47423656,7.90713402 C7.70391398,6.31063918 5.88421505,4.67468041 4.3643871,3.30779381 C2.22795699,1.38841237 0.679225806,0 0.679225806,0 L0.679225806,12.953732 L0.679225806,18.8278763" id="Clip-9" fill="#93C356"></path>
                        </g>
                    </g>
                </g>
                <g id="Imported-Layers-+-Stroke-2" transform="translate(74.666667, 7.175258)" stroke="#81C064" sketch:type="MSShapeGroup">
                    <path d="M8.43010753,14.0431753 L12.9052903,18.4870515 L20.6850753,10.7628866" id="Imported-Layers" stroke-width="3.3984" stroke-linecap="round" stroke-linejoin="round"></path>
                    <path d="M28.9863226,14.3911753 C28.9863226,22.3401649 22.4975484,28.7823505 14.4937634,28.7823505 C6.48877419,28.7823505 0,22.3401649 0,14.3911753 C0,6.44338144 6.48877419,0 14.4937634,0 C22.4975484,0 28.9863226,6.44338144 28.9863226,14.3911753 L28.9863226,14.3911753 Z" id="Stroke-2" stroke-width="0.5"></path>
                </g>
                <path d="M48.0023529,90.6023529 L48.0023529,85.0847059 C48.0023529,84.4423529 47.4752941,83.9152941 46.8329412,83.9152941 C46.1411765,83.9152941 45.6141176,84.4423529 45.6141176,85.0847059 L45.6141176,90.5364706 C45.6141176,92.0682353 44.7411765,93.1223529 43.0447059,93.1223529 C41.3482353,93.1223529 40.4588235,92.0682353 40.4588235,90.5364706 L40.4588235,85.0847059 C40.4588235,84.4423529 39.9317647,83.9152941 39.2894118,83.9152941 C38.6141176,83.9152941 38.0870588,84.4423529 38.0870588,85.0847059 L38.0870588,90.6188235 C38.0870588,93.32 39.7011765,95.1976471 43.0447059,95.1976471 C46.3882353,95.1976471 48.0023529,93.3364706 48.0023529,90.6023529 L48.0023529,90.6023529 Z M59.9611765,91.6729412 C59.9611765,87.5717647 53.6529412,88.7411765 53.6529412,86.9952941 C53.6529412,86.3364706 54.2129412,85.8917647 55.2176471,85.8917647 C56.0247059,85.8917647 56.8811765,86.0894118 57.6388235,86.5176471 C57.8364706,86.6329412 58.0341176,86.6823529 58.2317647,86.6823529 C58.7917647,86.6823529 59.4011765,86.2541176 59.4011765,85.6282353 C59.4011765,85.4305882 59.3352941,85.2329412 59.2035294,85.0682353 C58.5941176,84.2611765 56.6835294,83.8494118 55.4317647,83.8494118 C52.8458824,83.8494118 51.2647059,85.3647059 51.2647059,87.1929412 C51.2647059,91.3270588 57.5894118,89.9929412 57.5894118,91.9364706 C57.5894118,92.5623529 56.9635294,93.1552941 55.6788235,93.1552941 C54.6082353,93.1552941 53.6694118,92.8094118 52.9282353,92.2988235 C52.7470588,92.1670588 52.5164706,92.1176471 52.3023529,92.1176471 C51.7423529,92.1176471 51.1988235,92.5788235 51.1988235,93.2047059 C51.1988235,93.4023529 51.2647059,93.6 51.38,93.7647059 C51.9894118,94.6705882 53.9658824,95.1976471 55.5635294,95.1976471 C58.5282353,95.1976471 59.9611765,93.6823529 59.9611765,91.6729412 L59.9611765,91.6729412 Z M73.2047059,89.5152941 C73.2047059,86.2047059 70.8164706,84.0141176 67.3741176,84.0141176 L64.36,84.0141176 C63.6352941,84.0141176 63.0423529,84.6070588 63.0423529,85.3317647 L63.0423529,93.6823529 C63.0423529,94.4070588 63.6352941,95 64.36,95 L67.3741176,95 C70.8164706,95 73.2047059,92.8258824 73.2047059,89.5152941 L73.2047059,89.5152941 Z M70.8164706,89.5152941 C70.8164706,91.3764706 69.5482353,92.9411765 67.3741176,92.9411765 L65.3811765,92.9411765 L65.3811765,86.0729412 L67.3741176,86.0729412 C69.6305882,86.0729412 70.8164706,87.5717647 70.8164706,89.5152941 L70.8164706,89.5152941 Z" id="USD" fill="#93C356" sketch:type="MSShapeGroup"></path>
            </g>
        </g>
    </g>
</svg>